{
  "asset": {
    "generator": "Khronos glTF Blender I/O v3.2.43",
    "version": "2.0"
  },
  "scene": 0,
  "scenes": [
    {
      "name": "Scene",
      "nodes": [
        0
      ]
    }
  ],
  "nodes": [
    {
      "mesh": 0,
      "name": "sphere_gltf"
    }
  ],
  "materials": [
    {
      "doubleSided": true,
      "name": "asphalt_floor",
      "normalTexture": {
        "index": 0
      },
      "pbrMetallicRoughness": {
        "baseColorTexture": {
          "index": 1
        },
        "metallicFactor": 0,
        "metallicRoughnessTexture": {
          "index": 2
        }
      }
    }
  ],
  "meshes": [
    {
      "name": "Sphere.001",
      "primitives": [
        {
          "attributes": {
            "POSITION": 0,
            "NORMAL": 1,
            "TEXCOORD_0": 2
          },
          "indices": 3,
          "material": 0
        }
      ]
    }
  ],
  "textures": [
    {
      "sampler": 0,
      "source": 0
    },
    {
      "sampler": 0,
      "source": 1
    },
    {
      "sampler": 0,
      "source": 2
    }
  ],
  "images": [
    {
      "mimeType": "image/jpeg",
      "name": "asphalt_floor_nor_gl",
      "uri": "textures/asphalt_floor_nor_gl_1k.jpg"
    },
    {
      "mimeType": "image/jpeg",
      "name": "asphalt_floor_diff",
      "uri": "textures/asphalt_floor_diff_1k.jpg"
    },
    {
      "mimeType": "image/jpeg",
      "name": "asphalt_floor_rough",
      "uri": "textures/asphalt_floor_arm_1k.jpg"
    }
  ],
  "accessors": [
    {
      "bufferView": 0,
      "componentType": 5126,
      "count": 53929,
      "max": [
        1.1775798797607422,
        1.177354097366333,
        1.1775199174880981
      ],
      "min": [
        -1.17758047580719,
        -1.1779252290725708,
        -1.1775174140930176
      ],
      "type": "VEC3"
    },
    {
      "bufferView": 1,
      "componentType": 5126,
      "count": 53929,
      "type": "VEC3"
    },
    {
      "bufferView": 2,
      "componentType": 5126,
      "count": 53929,
      "type": "VEC2"
    },
    {
      "bufferView": 3,
      "componentType": 5123,
      "count": 322170,
      "type": "SCALAR"
    }
  ],
  "bufferViews": [
    {
      "buffer": 0,
      "byteLength": 647148,
      "byteOffset": 0
    },
    {
      "buffer": 0,
      "byteLength": 647148,
      "byteOffset": 647148
    },
    {
      "buffer": 0,
      "byteLength": 431432,
      "byteOffset": 1294296
    },
    {
      "buffer": 0,
      "byteLength": 644340,
      "byteOffset": 1725728
    }
  ],
  "samplers": [
    {
      "magFilter": 9729,
      "minFilter": 9987
    }
  ],
  "buffers": [
    {
      "byteLength": 2370068,
      "uri": "asphalt_floor.bin"
    }
  ]
}